<svg xmlns="http://www.w3.org/2000/svg" width="300" height="217" viewBox="0 0 300 217" role="img" aria-label="Gedogru, a gitagotchi">
<title>Gedogru — @torvalds&#8217;s gitagotchi</title>
<rect x="0.5" y="0.5" width="299" height="216" rx="8" fill="#0d1117" stroke="#30363d"/>
<g transform="translate(78,22) scale(6)" shape-rendering="crispEdges">
<g><rect x="7" y="1" width="1" height="1" fill="rgb(44,44,44)"/><rect x="10" y="1" width="1" height="1" fill="rgb(44,44,44)"/><rect x="13" y="1" width="1" height="1" fill="rgb(44,44,44)"/><rect x="16" y="1" width="1" height="1" fill="rgb(44,44,44)"/><rect x="18" y="1" width="1" height="1" fill="rgb(44,44,44)"/><rect x="6" y="2" width="2" height="1" fill="rgb(44,44,44)"/><rect x="8" y="2" width="1" height="1" fill="rgb(71,71,71)"/><rect x="9" y="2" width="1" height="1" fill="rgb(44,44,44)"/><rect x="10" y="2" width="1" height="1" fill="rgb(71,71,71)"/><rect x="11" y="2" width="1" height="1" fill="rgb(44,44,44)"/><rect x="12" y="2" width="1" height="1" fill="rgb(71,71,71)"/><rect x="13" y="2" width="1" height="1" fill="rgb(44,44,44)"/><rect x="14" y="2" width="1" height="1" fill="rgb(71,71,71)"/><rect x="15" y="2" width="1" height="1" fill="rgb(44,44,44)"/><rect x="16" y="2" width="1" height="1" fill="rgb(71,71,71)"/><rect x="17" y="2" width="1" height="1" fill="rgb(44,44,44)"/><rect x="6" y="3" width="1" height="1" fill="rgb(44,44,44)"/><rect x="7" y="3" width="10" height="1" fill="rgb(85,85,85)"/><rect x="17" y="3" width="1" height="1" fill="rgb(44,44,44)"/><rect x="6" y="4" width="1" height="1" fill="rgb(44,44,44)"/><rect x="7" y="4" width="10" height="1" fill="rgb(85,85,85)"/><rect x="17" y="4" width="1" height="1" fill="rgb(44,44,44)"/><rect x="6" y="5" width="3" height="1" fill="rgb(44,44,44)"/><rect x="9" y="5" width="6" height="1" fill="rgb(85,85,85)"/><rect x="15" y="5" width="3" height="1" fill="rgb(44,44,44)"/><rect x="6" y="6" width="1" height="1" fill="rgb(44,44,44)"/><rect x="7" y="6" width="10" height="1" fill="rgb(85,85,85)"/><rect x="17" y="6" width="1" height="1" fill="rgb(44,44,44)"/><rect x="6" y="7" width="1" height="1" fill="rgb(44,44,44)"/><rect x="7" y="7" width="1" height="1" fill="rgb(117,117,117)"/><rect x="8" y="7" width="3" height="1" fill="rgb(85,85,85)"/><rect x="11" y="7" width="2" height="1" fill="rgb(34,39,46)"/><rect x="13" y="7" width="3" height="1" fill="rgb(85,85,85)"/><rect x="16" y="7" width="1" height="1" fill="rgb(117,117,117)"/><rect x="17" y="7" width="1" height="1" fill="rgb(44,44,44)"/><rect x="6" y="8" width="1" height="1" fill="rgb(44,44,44)"/><rect x="7" y="8" width="10" height="1" fill="rgb(85,85,85)"/><rect x="17" y="8" width="1" height="1" fill="rgb(44,44,44)"/><rect x="7" y="9" width="1" height="1" fill="rgb(44,44,44)"/><rect x="8" y="9" width="2" height="1" fill="rgb(156,160,168)"/><rect x="10" y="9" width="2" height="1" fill="rgb(85,85,85)"/><rect x="12" y="9" width="2" height="1" fill="rgb(156,160,168)"/><rect x="14" y="9" width="2" height="1" fill="rgb(85,85,85)"/><rect x="16" y="9" width="1" height="1" fill="rgb(44,44,44)"/><rect x="8" y="10" width="6" height="1" fill="rgb(156,160,168)"/><rect x="14" y="10" width="1" height="1" fill="rgb(85,85,85)"/><rect x="15" y="10" width="1" height="1" fill="rgb(44,44,44)"/><rect x="7" y="11" width="1" height="1" fill="rgb(44,44,44)"/><rect x="8" y="11" width="1" height="1" fill="rgb(85,85,85)"/><rect x="9" y="11" width="4" height="1" fill="rgb(156,160,168)"/><rect x="13" y="11" width="3" height="1" fill="rgb(85,85,85)"/><rect x="16" y="11" width="1" height="1" fill="rgb(44,44,44)"/><rect x="6" y="12" width="1" height="1" fill="rgb(44,44,44)"/><rect x="7" y="12" width="1" height="1" fill="rgb(85,85,85)"/><rect x="8" y="12" width="2" height="1" fill="rgb(144,144,144)"/><rect x="10" y="12" width="1" height="1" fill="rgb(71,71,71)"/><rect x="11" y="12" width="1" height="1" fill="rgb(144,144,144)"/><rect x="12" y="12" width="1" height="1" fill="rgb(71,71,71)"/><rect x="13" y="12" width="1" height="1" fill="rgb(144,144,144)"/><rect x="14" y="12" width="2" height="1" fill="rgb(85,85,85)"/><rect x="16" y="12" width="1" height="1" fill="rgb(44,44,44)"/><rect x="6" y="13" width="1" height="1" fill="rgb(44,44,44)"/><rect x="7" y="13" width="1" height="1" fill="rgb(85,85,85)"/><rect x="8" y="13" width="6" height="1" fill="rgb(71,71,71)"/><rect x="14" y="13" width="2" height="1" fill="rgb(85,85,85)"/><rect x="16" y="13" width="1" height="1" fill="rgb(44,44,44)"/><rect x="7" y="14" width="1" height="1" fill="rgb(44,44,44)"/><rect x="8" y="14" width="8" height="1" fill="rgb(85,85,85)"/><rect x="16" y="14" width="1" height="1" fill="rgb(44,44,44)"/><rect x="7" y="15" width="1" height="1" fill="rgb(44,44,44)"/><rect x="8" y="15" width="1" height="1" fill="rgb(85,85,85)"/><rect x="9" y="15" width="1" height="1" fill="rgb(44,44,44)"/><rect x="14" y="15" width="1" height="1" fill="rgb(44,44,44)"/><rect x="15" y="15" width="1" height="1" fill="rgb(85,85,85)"/><rect x="16" y="15" width="1" height="1" fill="rgb(44,44,44)"/></g>
</g>
<text x="150" y="148" text-anchor="middle" font-family="ui-monospace,SFMono-Regular,Menlo,Consolas,monospace" font-size="16" font-weight="bold" fill="#555555">Gedogru</text>
<text x="150" y="167" text-anchor="middle" font-family="ui-monospace,SFMono-Regular,Menlo,Consolas,monospace" font-size="11" fill="#8b949e">the Hopi · elder · @torvalds · asleep</text>
<text x="46" y="191" text-anchor="end" font-family="ui-monospace,SFMono-Regular,Menlo,Consolas,monospace" font-size="11" fill="#f778ba">&#9829;</text>
<rect x="52" y="183" width="180" height="8" rx="4" fill="#21262d"/>
<rect x="52" y="183" width="63" height="8" rx="4" fill="#f85149"/>
<text x="240" y="191" font-family="ui-monospace,SFMono-Regular,Menlo,Consolas,monospace" font-size="11" fill="#8b949e">35</text>
<text x="288" y="207" text-anchor="end" font-family="ui-monospace,SFMono-Regular,Menlo,Consolas,monospace" font-size="9" fill="#484f58">gitagotchi</text>
</svg>
