<svg xmlns="http://www.w3.org/2000/svg" width="352" height="217" viewBox="0 0 352 217" role="img" aria-label="Zeflofli, a gitagotchi">
<title>Zeflofli — @torvalds&#8217;s gitagotchi</title>
<style>#blink{opacity:0;animation:bl 4.6s step-end infinite}@keyframes bl{0%,91%{opacity:0}91.01%,96%{opacity:1}96.01%,100%{opacity:0}}</style>
<rect x="0.5" y="0.5" width="351" height="216" rx="8" fill="#0d1117" stroke="#30363d"/>
<g transform="translate(32,22) scale(6)" shape-rendering="crispEdges">
<g><rect x="14" y="1" width="2" height="1" fill="rgb(44,44,44)"/><rect x="19" y="1" width="4" height="1" fill="rgb(44,44,44)"/><rect x="26" y="1" width="2" height="1" fill="rgb(44,44,44)"/><rect x="31" y="1" width="3" height="1" fill="rgb(44,44,44)"/><rect x="36" y="1" width="2" height="1" fill="rgb(44,44,44)"/><rect x="11" y="2" width="1" height="1" fill="rgb(44,44,44)"/><rect x="12" y="2" width="2" height="1" fill="rgb(71,71,71)"/><rect x="14" y="2" width="2" height="1" fill="rgb(44,44,44)"/><rect x="16" y="2" width="2" height="1" fill="rgb(71,71,71)"/><rect x="18" y="2" width="2" height="1" fill="rgb(44,44,44)"/><rect x="20" y="2" width="2" height="1" fill="rgb(71,71,71)"/><rect x="22" y="2" width="2" height="1" fill="rgb(44,44,44)"/><rect x="24" y="2" width="2" height="1" fill="rgb(71,71,71)"/><rect x="26" y="2" width="2" height="1" fill="rgb(44,44,44)"/><rect x="28" y="2" width="2" height="1" fill="rgb(71,71,71)"/><rect x="30" y="2" width="2" height="1" fill="rgb(44,44,44)"/><rect x="32" y="2" width="2" height="1" fill="rgb(71,71,71)"/><rect x="34" y="2" width="3" height="1" fill="rgb(44,44,44)"/><rect x="11" y="3" width="1" height="1" fill="rgb(44,44,44)"/><rect x="12" y="3" width="23" height="1" fill="rgb(85,85,85)"/><rect x="35" y="3" width="2" height="1" fill="rgb(44,44,44)"/><rect x="11" y="4" width="1" height="1" fill="rgb(44,44,44)"/><rect x="12" y="4" width="8" height="1" fill="rgb(34,39,46)"/><rect x="20" y="4" width="8" height="1" fill="rgb(85,85,85)"/><rect x="28" y="4" width="8" height="1" fill="rgb(34,39,46)"/><rect x="36" y="4" width="1" height="1" fill="rgb(44,44,44)"/><rect x="11" y="5" width="1" height="1" fill="rgb(44,44,44)"/><rect x="12" y="5" width="4" height="1" fill="rgb(34,39,46)"/><rect x="16" y="5" width="2" height="1" fill="rgb(144,144,144)"/><rect x="18" y="5" width="14" height="1" fill="rgb(34,39,46)"/><rect x="32" y="5" width="2" height="1" fill="rgb(144,144,144)"/><rect x="34" y="5" width="2" height="1" fill="rgb(34,39,46)"/><rect x="36" y="5" width="1" height="1" fill="rgb(44,44,44)"/><rect x="11" y="6" width="1" height="1" fill="rgb(44,44,44)"/><rect x="12" y="6" width="8" height="1" fill="rgb(34,39,46)"/><rect x="20" y="6" width="8" height="1" fill="rgb(85,85,85)"/><rect x="28" y="6" width="8" height="1" fill="rgb(34,39,46)"/><rect x="36" y="6" width="1" height="1" fill="rgb(44,44,44)"/><rect x="11" y="7" width="1" height="1" fill="rgb(44,44,44)"/><rect x="12" y="7" width="2" height="1" fill="rgb(85,85,85)"/><rect x="14" y="7" width="2" height="1" fill="rgb(117,117,117)"/><rect x="16" y="7" width="2" height="1" fill="rgb(85,85,85)"/><rect x="18" y="7" width="4" height="1" fill="rgb(69,211,147)"/><rect x="22" y="7" width="4" height="1" fill="rgb(34,39,46)"/><rect x="26" y="7" width="4" height="1" fill="rgb(69,211,147)"/><rect x="30" y="7" width="2" height="1" fill="rgb(85,85,85)"/><rect x="32" y="7" width="2" height="1" fill="rgb(117,117,117)"/><rect x="34" y="7" width="1" height="1" fill="rgb(85,85,85)"/><rect x="35" y="7" width="1" height="1" fill="rgb(71,71,71)"/><rect x="36" y="7" width="1" height="1" fill="rgb(44,44,44)"/><rect x="11" y="8" width="2" height="1" fill="rgb(44,44,44)"/><rect x="13" y="8" width="5" height="1" fill="rgb(85,85,85)"/><rect x="18" y="8" width="12" height="1" fill="rgb(69,211,147)"/><rect x="30" y="8" width="4" height="1" fill="rgb(85,85,85)"/><rect x="34" y="8" width="1" height="1" fill="rgb(71,71,71)"/><rect x="35" y="8" width="2" height="1" fill="rgb(44,44,44)"/><rect x="12" y="9" width="3" height="1" fill="rgb(44,44,44)"/><rect x="15" y="9" width="5" height="1" fill="rgb(85,85,85)"/><rect x="20" y="9" width="8" height="1" fill="rgb(69,211,147)"/><rect x="28" y="9" width="4" height="1" fill="rgb(85,85,85)"/><rect x="32" y="9" width="1" height="1" fill="rgb(71,71,71)"/><rect x="33" y="9" width="3" height="1" fill="rgb(44,44,44)"/><rect x="15" y="10" width="3" height="1" fill="rgb(44,44,44)"/><rect x="18" y="10" width="12" height="1" fill="rgb(85,85,85)"/><rect x="30" y="10" width="3" height="1" fill="rgb(44,44,44)"/><rect x="12" y="11" width="3" height="1" fill="rgb(44,44,44)"/><rect x="15" y="11" width="18" height="1" fill="rgb(85,85,85)"/><rect x="33" y="11" width="2" height="1" fill="rgb(44,44,44)"/><rect x="11" y="12" width="2" height="1" fill="rgb(44,44,44)"/><rect x="13" y="12" width="3" height="1" fill="rgb(85,85,85)"/><rect x="16" y="12" width="4" height="1" fill="rgb(144,144,144)"/><rect x="20" y="12" width="1" height="1" fill="rgb(71,71,71)"/><rect x="21" y="12" width="3" height="1" fill="rgb(144,144,144)"/><rect x="24" y="12" width="1" height="1" fill="rgb(71,71,71)"/><rect x="25" y="12" width="3" height="1" fill="rgb(144,144,144)"/><rect x="28" y="12" width="5" height="1" fill="rgb(85,85,85)"/><rect x="33" y="12" width="1" height="1" fill="rgb(71,71,71)"/><rect x="34" y="12" width="1" height="1" fill="rgb(44,44,44)"/><rect x="11" y="13" width="2" height="1" fill="rgb(44,44,44)"/><rect x="13" y="13" width="3" height="1" fill="rgb(85,85,85)"/><rect x="16" y="13" width="12" height="1" fill="rgb(71,71,71)"/><rect x="28" y="13" width="5" height="1" fill="rgb(85,85,85)"/><rect x="33" y="13" width="1" height="1" fill="rgb(71,71,71)"/><rect x="34" y="13" width="1" height="1" fill="rgb(44,44,44)"/><rect x="12" y="14" width="3" height="1" fill="rgb(44,44,44)"/><rect x="15" y="14" width="17" height="1" fill="rgb(85,85,85)"/><rect x="32" y="14" width="1" height="1" fill="rgb(71,71,71)"/><rect x="33" y="14" width="2" height="1" fill="rgb(44,44,44)"/><rect x="13" y="15" width="3" height="1" fill="rgb(44,44,44)"/><rect x="16" y="15" width="1" height="1" fill="rgb(85,85,85)"/><rect x="17" y="15" width="1" height="1" fill="rgb(71,71,71)"/><rect x="18" y="15" width="2" height="1" fill="rgb(44,44,44)"/><rect x="28" y="15" width="2" height="1" fill="rgb(44,44,44)"/><rect x="30" y="15" width="1" height="1" fill="rgb(85,85,85)"/><rect x="31" y="15" width="1" height="1" fill="rgb(71,71,71)"/><rect x="32" y="15" width="3" height="1" fill="rgb(44,44,44)"/></g>
<g id="blink"><rect x="15" y="5" width="4" height="1" fill="rgb(44,44,44)"/><rect x="31" y="5" width="5" height="1" fill="rgb(44,44,44)"/></g>
</g>
<text x="176" y="148" text-anchor="middle" font-family="ui-monospace,SFMono-Regular,Menlo,Consolas,monospace" font-size="16" font-weight="bold" fill="#555555">Zeflofli</text>
<text x="176" y="167" text-anchor="middle" font-family="ui-monospace,SFMono-Regular,Menlo,Consolas,monospace" font-size="11" fill="#8b949e">the Hopi · elder · @torvalds</text>
<text x="72" y="191" text-anchor="end" font-family="ui-monospace,SFMono-Regular,Menlo,Consolas,monospace" font-size="11" fill="#f778ba">&#9829;</text>
<rect x="78" y="183" width="180" height="8" rx="4" fill="#21262d"/>
<rect x="78" y="183" width="57" height="8" rx="4" fill="#f85149"/>
<text x="266" y="191" font-family="ui-monospace,SFMono-Regular,Menlo,Consolas,monospace" font-size="11" fill="#8b949e">32</text>
<text x="340" y="207" text-anchor="end" font-family="ui-monospace,SFMono-Regular,Menlo,Consolas,monospace" font-size="9" fill="#484f58">gitagotchi</text>
</svg>
