<svg xmlns="http://www.w3.org/2000/svg" width="331" height="169" viewBox="0 0 331 169" role="img" aria-label="Meplezit, a gitagotchi">
<title>Meplezit — @octocat&#8217;s gitagotchi</title>
<rect x="0.5" y="0.5" width="330" height="168" rx="8" fill="#0d1117" stroke="#30363d"/>
<g transform="translate(93,22) scale(6)" shape-rendering="crispEdges">
<g><rect x="8" y="0" width="8" height="1" fill="rgb(53,27,80)"/><rect x="6" y="1" width="2" height="1" fill="rgb(53,27,80)"/><rect x="8" y="1" width="2" height="1" fill="rgb(102,51,153)"/><rect x="10" y="1" width="2" height="1" fill="rgb(85,42,127)"/><rect x="12" y="1" width="4" height="1" fill="rgb(102,51,153)"/><rect x="16" y="1" width="2" height="1" fill="rgb(53,27,80)"/><rect x="5" y="2" width="1" height="1" fill="rgb(53,27,80)"/><rect x="6" y="2" width="2" height="1" fill="rgb(102,51,153)"/><rect x="8" y="2" width="2" height="1" fill="rgb(85,42,127)"/><rect x="10" y="2" width="2" height="1" fill="rgb(102,51,153)"/><rect x="12" y="2" width="2" height="1" fill="rgb(85,42,127)"/><rect x="14" y="2" width="3" height="1" fill="rgb(102,51,153)"/><rect x="17" y="2" width="1" height="1" fill="rgb(53,27,80)"/><rect x="5" y="3" width="1" height="1" fill="rgb(53,27,80)"/><rect x="6" y="3" width="1" height="1" fill="rgb(102,51,153)"/><rect x="7" y="3" width="2" height="1" fill="rgb(85,42,127)"/><rect x="9" y="3" width="2" height="1" fill="rgb(102,51,153)"/><rect x="11" y="3" width="2" height="1" fill="rgb(85,42,127)"/><rect x="13" y="3" width="2" height="1" fill="rgb(102,51,153)"/><rect x="15" y="3" width="2" height="1" fill="rgb(85,42,127)"/><rect x="17" y="3" width="1" height="1" fill="rgb(102,51,153)"/><rect x="18" y="3" width="1" height="1" fill="rgb(53,27,80)"/><rect x="5" y="4" width="1" height="1" fill="rgb(53,27,80)"/><rect x="6" y="4" width="2" height="1" fill="rgb(102,51,153)"/><rect x="8" y="4" width="2" height="1" fill="rgb(85,42,127)"/><rect x="10" y="4" width="2" height="1" fill="rgb(102,51,153)"/><rect x="12" y="4" width="2" height="1" fill="rgb(85,42,127)"/><rect x="14" y="4" width="4" height="1" fill="rgb(102,51,153)"/><rect x="18" y="4" width="1" height="1" fill="rgb(53,27,80)"/><rect x="5" y="5" width="1" height="1" fill="rgb(53,27,80)"/><rect x="6" y="5" width="1" height="1" fill="rgb(102,51,153)"/><rect x="7" y="5" width="2" height="1" fill="rgb(85,42,127)"/><rect x="9" y="5" width="2" height="1" fill="rgb(102,51,153)"/><rect x="11" y="5" width="2" height="1" fill="rgb(85,42,127)"/><rect x="13" y="5" width="2" height="1" fill="rgb(102,51,153)"/><rect x="15" y="5" width="2" height="1" fill="rgb(85,42,127)"/><rect x="17" y="5" width="1" height="1" fill="rgb(102,51,153)"/><rect x="18" y="5" width="1" height="1" fill="rgb(53,27,80)"/><rect x="6" y="6" width="2" height="1" fill="rgb(53,27,80)"/><rect x="8" y="6" width="2" height="1" fill="rgb(102,51,153)"/><rect x="10" y="6" width="2" height="1" fill="rgb(85,42,127)"/><rect x="12" y="6" width="4" height="1" fill="rgb(102,51,153)"/><rect x="16" y="6" width="2" height="1" fill="rgb(53,27,80)"/><rect x="8" y="7" width="8" height="1" fill="rgb(53,27,80)"/></g>
</g>
<text x="165" y="100" text-anchor="middle" font-family="ui-monospace,SFMono-Regular,Menlo,Consolas,monospace" font-size="16" font-weight="bold" fill="#663399">Meplezit</text>
<text x="165" y="119" text-anchor="middle" font-family="ui-monospace,SFMono-Regular,Menlo,Consolas,monospace" font-size="11" fill="#8b949e">the Rawo · hatchling · @octocat · hibernating</text>
<text x="61" y="143" text-anchor="end" font-family="ui-monospace,SFMono-Regular,Menlo,Consolas,monospace" font-size="11" fill="#f778ba">&#9829;</text>
<rect x="67" y="135" width="180" height="8" rx="4" fill="#21262d"/>
<rect x="67" y="135" width="30" height="8" rx="4" fill="#f85149"/>
<text x="255" y="143" font-family="ui-monospace,SFMono-Regular,Menlo,Consolas,monospace" font-size="11" fill="#8b949e">17</text>
<text x="319" y="159" text-anchor="end" font-family="ui-monospace,SFMono-Regular,Menlo,Consolas,monospace" font-size="9" fill="#484f58">gitagotchi</text>
</svg>
